<?xml version="1.0" encoding="utf-8"?>
<!-- Generator: Adobe Illustrator 16.0.0, SVG Export Plug-In . SVG Version: 6.00 Build 0)  -->
<!DOCTYPE svg PUBLIC "-//W3C//DTD SVG 1.1//EN" "http://www.w3.org/Graphics/SVG/1.1/DTD/svg11.dtd">
<svg version="1.1" id="Layer_1" xmlns="http://www.w3.org/2000/svg" xmlns:xlink="http://www.w3.org/1999/xlink" x="0px" y="0px"
	 width="111px" height="47.625px" viewBox="1.438 0 111 47.625" enable-background="new 1.438 0 111 47.625" xml:space="preserve">
<g>
	<path fill="#FFFFFF" d="M36.471,2.459c0.579,0.596,0.868,1.387,0.868,2.375v30.229c0,0.955-0.272,1.702-0.817,2.247
		c-0.545,0.545-1.259,0.818-2.145,0.818c-0.885,0-1.583-0.273-2.094-0.818c-0.51-0.545-0.766-1.292-0.766-2.247V14.025
		l-8.681,16.441c-0.408,0.75-0.851,1.304-1.327,1.662c-0.477,0.357-1.039,0.535-1.686,0.535s-1.209-0.171-1.685-0.511
		c-0.477-0.34-0.919-0.902-1.328-1.687L8.079,14.281v20.782c0,0.921-0.264,1.659-0.792,2.222c-0.528,0.561-1.234,0.844-2.119,0.844
		c-0.886,0-1.583-0.273-2.094-0.818s-0.766-1.292-0.766-2.247V4.834c0-0.987,0.281-1.778,0.843-2.375
		C3.713,1.864,4.47,1.565,5.424,1.565c1.327,0,2.365,0.733,3.115,2.196l11.336,21.601L31.161,3.761
		c0.748-1.463,1.752-2.196,3.013-2.196C35.126,1.565,35.892,1.864,36.471,2.459z"/>
	<path fill="#FFFFFF" d="M60.625,12.902c0.51,0.443,0.766,1.107,0.766,1.992c0,0.919-0.222,1.601-0.664,2.042
		c-0.443,0.443-1.243,0.732-2.4,0.868l-1.532,0.153c-2.009,0.205-3.48,0.886-4.417,2.042c-0.937,1.157-1.404,2.604-1.404,4.341
		v10.723c0,0.989-0.306,1.746-0.919,2.272c-0.613,0.528-1.378,0.793-2.298,0.793c-0.919,0-1.677-0.265-2.272-0.793
		c-0.597-0.526-0.894-1.283-0.894-2.272V15.302c0-0.952,0.297-1.685,0.894-2.195c0.595-0.511,1.335-0.766,2.221-0.766
		c0.885,0,1.6,0.247,2.145,0.74c0.544,0.494,0.817,1.201,0.817,2.12v2.042c0.646-1.498,1.609-2.655,2.885-3.472
		s2.698-1.277,4.264-1.379l0.715-0.05C59.416,12.272,60.113,12.46,60.625,12.902z"/>
	<path fill="#FFFFFF" d="M64.555,6.851c-0.681-0.63-1.021-1.455-1.021-2.477s0.339-1.839,1.021-2.451
		c0.681-0.613,1.6-0.919,2.758-0.919c1.123,0,2.034,0.307,2.732,0.919c0.698,0.612,1.047,1.43,1.047,2.451s-0.341,1.847-1.021,2.477
		c-0.682,0.63-1.601,0.944-2.757,0.944C66.155,7.795,65.236,7.481,64.555,6.851z M65.041,37.336
		c-0.597-0.526-0.894-1.283-0.894-2.272v-19.71c0-0.987,0.297-1.736,0.894-2.247c0.595-0.511,1.353-0.766,2.272-0.766
		c0.919,0,1.685,0.255,2.298,0.766c0.613,0.51,0.919,1.259,0.919,2.247v19.71c0,0.989-0.306,1.746-0.919,2.272
		c-0.613,0.528-1.378,0.793-2.298,0.793C66.394,38.129,65.636,37.864,65.041,37.336z"/>
	<path fill="#FFFFFF" d="M100.557,13.158c0.579,0.544,0.868,1.276,0.868,2.195v20.17c0,3.916-1.092,6.876-3.268,8.886
		c-2.181,2.008-5.396,3.013-9.651,3.013c-3.712,0-6.811-0.697-9.295-2.095c-1.26-0.749-1.889-1.651-1.889-2.705
		c0-0.749,0.178-1.347,0.536-1.788c0.357-0.442,0.825-0.663,1.404-0.663c0.306,0,0.68,0.077,1.123,0.229
		c0.441,0.153,0.901,0.333,1.379,0.536c1.226,0.51,2.323,0.902,3.293,1.176c0.971,0.271,2.085,0.407,3.346,0.407
		c4.46,0,6.688-2.178,6.688-6.535v-3.271c-0.75,1.397-1.839,2.478-3.268,3.243s-3.063,1.15-4.902,1.15
		c-2.179,0-4.11-0.52-5.796-1.559c-1.686-1.037-3.005-2.493-3.957-4.366c-0.954-1.871-1.43-4.034-1.43-6.485
		c0-2.451,0.468-4.621,1.404-6.51c0.936-1.889,2.255-3.353,3.957-4.391s3.643-1.558,5.821-1.558c1.84,0,3.474,0.383,4.902,1.149
		c1.429,0.766,2.518,1.847,3.268,3.243v-1.328c0-0.885,0.29-1.6,0.868-2.144c0.579-0.545,1.345-0.817,2.297-0.817
		C99.212,12.341,99.978,12.613,100.557,13.158z M93.381,30.162c1.142-1.329,1.711-3.149,1.711-5.465
		c0-2.348-0.569-4.187-1.711-5.515c-1.14-1.327-2.73-1.991-4.774-1.991c-2.009,0-3.591,0.664-4.749,1.991
		c-1.157,1.328-1.735,3.167-1.735,5.515c0,2.315,0.578,4.136,1.735,5.465c1.158,1.328,2.74,1.991,4.749,1.991
		C90.65,32.153,92.241,31.49,93.381,30.162z"/>
</g>
<circle fill="#FFFFFF" cx="107.438" cy="39.629" r="4.25"/>
</svg>
